<?xml version="1.0" standalone="no"?>
<!DOCTYPE svg PUBLIC "-//W3C//DTD SVG 20010904//EN"
 "http://www.w3.org/TR/2001/REC-SVG-20010904/DTD/svg10.dtd">
<svg version="1.0" xmlns="http://www.w3.org/2000/svg"
 width="129.000000pt" height="129.000000pt" viewBox="0 0 129.000000 129.000000"
 preserveAspectRatio="xMidYMid meet">

<g transform="translate(0.000000,129.000000) scale(0.100000,-0.100000)"
fill="#000000" stroke="none">
<path d="M495 1114 l-180 -104 -72 0 c-40 0 -73 -3 -73 -6 0 -4 15 -30 32 -58
l33 -51 5 -218 5 -219 178 -102 c173 -100 179 -105 214 -162 19 -32 36 -60 38
-62 1 -2 18 24 37 58 34 61 35 62 214 164 l179 104 5 218 5 219 33 51 c17 28
32 54 32 58 0 3 -32 6 -70 6 l-71 0 -162 94 c-89 51 -171 98 -182 104 -18 9
-48 -5 -200 -94z m195 41 c11 -13 10 -14 -3 -9 -8 3 -26 -1 -39 -9 -122 -77
-238 -134 -238 -118 1 6 249 150 261 151 4 0 12 -7 19 -15z m80 -51 c0 -2 -13
2 -30 11 -16 9 -30 18 -30 21 0 2 14 -2 30 -11 17 -9 30 -18 30 -21z m-179
-25 c-18 -11 -31 -23 -27 -26 3 -3 17 2 32 11 14 10 28 16 30 13 11 -11 -70
-47 -104 -47 l-37 0 60 34 c64 37 102 49 46 15z m79 17 c0 -2 -7 -7 -16 -10
-8 -3 -12 -2 -9 4 6 10 25 14 25 6z m10 -20 c0 -6 -99 -66 -108 -66 -6 0 98
69 106 70 1 0 2 -2 2 -4z m-267 -238 c47 -79 125 -213 174 -298 l89 -156 39
63 c22 35 42 63 45 63 3 0 17 -21 31 -47 l25 -46 -65 -114 c-36 -62 -68 -113
-71 -113 -4 0 -281 475 -412 707 l-47 83 54 0 53 0 85 -142z m717 130 c0 -7
-11 -31 -23 -53 l-23 -40 -89 -2 c-50 -1 -134 -2 -187 -2 l-97 -1 61 -106 60
-105 24 38 23 38 -22 5 c-18 5 -23 14 -25 53 l-3 47 110 0 c71 0 111 -4 111
-10 0 -12 -186 -338 -204 -358 -9 -9 -44 44 -156 239 -80 138 -146 255 -148
260 -2 5 128 9 292 9 230 0 296 -3 296 -12z m-837 -333 c1 -110 -1 -145 -10
-145 -10 0 -13 39 -13 163 1 113 4 157 11 145 5 -10 11 -83 12 -163z m771 120
c-8 -19 -23 -50 -34 -67 -15 -24 -20 -51 -20 -100 l0 -67 -56 -32 c-32 -18
-64 -45 -73 -62 -9 -17 -28 -44 -44 -61 -24 -28 -23 -24 10 36 31 55 46 71 90
95 l53 28 0 63 c0 56 5 71 41 133 23 38 43 69 45 69 1 0 -4 -16 -12 -35z m23
-17 c-3 -8 -6 -5 -6 6 -1 11 2 17 5 13 3 -3 4 -12 1 -19z m-762 -59 c10 -19
15 -47 12 -77 l-3 -47 -3 55 c-2 44 -5 50 -11 30 -7 -22 -8 -21 -7 11 0 20 -3
41 -7 47 -4 7 -5 12 -2 12 3 0 13 -14 21 -31z m42 -111 c-2 -18 -4 -6 -4 27 0
33 2 48 4 33 2 -15 2 -42 0 -60z m29 -74 c18 -14 18 -14 -6 -3 -31 14 -36 19
-24 19 6 0 19 -7 30 -16z m689 -13 c-3 -5 -58 -40 -123 -77 -142 -81 -139 -79
-129 -69 6 8 245 152 255 154 2 1 1 -3 -3 -8z"/>
</g>
</svg>
